HIERARCHY
ROOT Hips
{
  OFFSET 263.056 91.6644 -274.608
  CHANNELS 6 Xposition Yposition Zposition Zrotation Xrotation Yrotation
  JOINT LeftUpLeg
  {
    OFFSET 8.64259 1.95398 -2.38835
    CHANNELS 3 Zrotation Xrotation Yrotation
    JOINT LeftLeg
    {
      OFFSET 43.7702 0 0
      CHANNELS 3 Zrotation Xrotation Yrotation
      JOINT LeftFoot
      {
        OFFSET 40.6238 0 0
        CHANNELS 3 Zrotation Xrotation Yrotation
        JOINT LeftToeBase
        {
          OFFSET 12.7242 0 0
          CHANNELS 3 Zrotation Xrotation Yrotation
          End Site
          {
            OFFSET 0 0 0
          }
        }
      }
    }
  }
  JOINT RightUpLeg
  {
    OFFSET -8.2249 1.95398 -2.59336
    CHANNELS 3 Zrotation Xrotation Yrotation
    JOINT RightLeg
    {
      OFFSET 43.5653 0 0
      CHANNELS 3 Zrotation Xrotation Yrotation
      JOINT RightFoot
      {
        OFFSET 40.6238 0 0
        CHANNELS 3 Zrotation Xrotation Yrotation
        JOINT RightToeBase
        {
          OFFSET 12.7242 0 0
          CHANNELS 3 Zrotation Xrotation Yrotation
          End Site
          {
            OFFSET 0 0 0
          }
        }
      }
    }
  }
  JOINT Spine
  {
    OFFSET 0.165834 0.87714 6.61349
    CHANNELS 3 Zrotation Xrotation Yrotation
    JOINT Spine1
    {
      OFFSET 7.38963 1.71661e-005 0
      CHANNELS 3 Zrotation Xrotation Yrotation
      JOINT Spine2
      {
        OFFSET 11.9445 1.14441e-005 0
        CHANNELS 3 Zrotation Xrotation Yrotation
        JOINT Spine3
        {
          OFFSET 14.7254 4.19617e-005 0
          CHANNELS 3 Zrotation Xrotation Yrotation
          JOINT Spine4
          {
            OFFSET 10.9679 0 0
            CHANNELS 3 Zrotation Xrotation Yrotation
            JOINT RightShoulder
            {
              OFFSET 2.46616 -1.6653 3.69651
              CHANNELS 3 Zrotation Xrotation Yrotation
              JOINT RightArm
              {
                OFFSET 13.0012 0 0
                CHANNELS 3 Zrotation Xrotation Yrotation
                JOINT RightForeArm
                {
                  OFFSET 28.7848 1.52588e-005 0
                  CHANNELS 3 Zrotation Xrotation Yrotation
                  JOINT RightHand
                  {
                    OFFSET 26.5688 1.52588e-005 0
                    CHANNELS 3 Zrotation Xrotation Yrotation
                    End Site
                    {
                      OFFSET 0 0 0
                    }
                  }
                }
              }
            }
            JOINT LeftShoulder
            {
              OFFSET 2.38034 -1.29275 -3.7523
              CHANNELS 3 Zrotation Xrotation Yrotation
              JOINT LeftArm
              {
                OFFSET 16.3182 6.10352e-005 0
                CHANNELS 3 Zrotation Xrotation Yrotation
                JOINT LeftForeArm
                {
                  OFFSET 27.0901 0 0
                  CHANNELS 3 Zrotation Xrotation Yrotation
                  JOINT LeftHand
                  {
                    OFFSET 24.5451 1.52588e-005 0
                    CHANNELS 3 Zrotation Xrotation Yrotation
                    End Site
                    {
                      OFFSET 0 0 0
                    }
                  }
                }
              }
            }
            JOINT Neck
            {
              OFFSET 5.0226 -0.0266342 0
              CHANNELS 3 Zrotation Xrotation Yrotation
              JOINT Head
              {
                OFFSET 6.69364 2.86102e-005 0
                CHANNELS 3 Zrotation Xrotation Yrotation
                End Site
                {
                  OFFSET 0 0 0
                }
              }
            }
          }
        }
      }
    }
  }
}
MOTION
Frames:	15
Frame Time:	0.0416667
36.3758 97.5725 -264.84 -85.5492 -86.6067 -86.0754 -173.791 4.22811 86.7725 -10.0506 16.0159 -1.57502 62.4935 8.69689 13.7469 28.7341 0.958266 -9.67663 178.324 5.50287 91.6377 -16.593 -0.831483 -0.78002 68.34 -2.57732 -1.35047 28.7464 -0.716799 11.2482 -0.140617 7.28112 -89.8891 12.3118 -0.22678 0.247045 0.640887 -0.215691 0.256781 -21.8943 -0.290545 0.167469 -1.88169 -0.290541 0.167465 80.7419 -52.2858 -113.927 28.3514 -7.46061 9.00326 -7.99141 -16.3581 -37.9215 -6.32693 -0.391884 -0.618395 -101.765 -42.996 58.5232 -30.9555 7.14207 4.85691 5.39936 9.59891 -31.9742 9.82774 0.751602 3.49766 11.3378 0.688912 0.885759 -3.6299 0.459139 1.05127 
36.5833 97.4061 -264.184 -79.9509 -87.1379 -80.6189 -173.908 4.25394 86.4412 -10.4619 16.8744 -1.69754 62.3942 9.75545 15.0982 29.7838 1.76165 -7.27979 178.478 5.89801 91.5817 -17.8575 0.146212 -1.10917 69.1027 -2.71024 -1.40616 29.596 -0.600538 11.5874 -0.159936 7.25044 -89.9651 12.3733 -0.301143 0.104072 0.70239 -0.296274 0.11722 -21.833 -0.318506 0.00874728 -1.82041 -0.318502 0.00874866 80.8604 -51.0966 -114.199 28.8858 -7.0381 10.3146 -7.337 -14.1008 -38.9375 -5.4062 -0.422945 1.94739 -102.68 -43.5774 57.3895 -30.8567 7.24578 4.90616 4.9149 8.88598 -31.758 11.0017 0.910845 4.15209 10.5911 0.947219 2.83747 -2.09564 0.264394 -0.588131 
37.2273 97.1249 -263.186 -75.2378 -87.125 -75.0429 -174.322 5.1952 86.4236 -13.4402 15.5349 -0.85498 64.0302 11.7564 15.7118 31.0999 3.11879 -8.27228 179.141 5.86034 92.3521 -18.6128 1.05648 -1.55659 69.8197 -3.26832 -1.69583 31.8741 -0.220791 11.5841 -0.0922815 7.23844 -90.043 12.3969 -0.203759 -0.0626164 0.725921 -0.206311 -0.0536019 -21.8093 -0.175527 -0.12097 -1.79666 -0.175513 -0.120959 81.1429 -51.0716 -113.794 29.3663 -6.30772 10.9079 -10.7332 -14.0614 -43.1386 -3.15032 -0.393272 4.96338 -102.486 -43.4617 57.6315 -31.2054 7.28684 4.80886 4.85484 8.792 -31.5995 10.5159 0.749371 3.05912 10.6469 0.761492 1.98109 -1.90858 0.282319 -0.271854 
37.5896 96.4433 -261.943 -73.8108 -87.2155 -73.6135 -174.777 6.09981 85.8196 -17.1804 15.3382 -0.458746 65.793 14.089 16.7211 33.4287 5.35466 -7.81025 179.989 8.15483 92.8847 -24.4104 3.57897 -2.65198 71.1287 -4.18843 -2.14321 37.3291 0.709884 12.0899 -0.0960162 7.27373 -90.039 12.3262 -0.209267 -0.0543485 0.655238 -0.211457 -0.0450965 -21.88 -0.183264 -0.114733 -1.86736 -0.183254 -0.114726 80.8165 -51.2409 -114.21 29.1034 -6.05793 11.4545 -10.3849 -13.9546 -43.3659 -3.62628 -0.424661 5.12938 -102.46 -43.5426 57.7075 -31.3956 7.55693 5.06681 5.23543 9.23713 -32.5664 10.1985 0.715577 2.94365 10.3736 0.717236 1.95536 -1.14807 0.245397 -0.37674 
37.9796 95.6299 -260.465 -69.7135 -86.0402 -70.1591 -175.07 6.94486 84.6691 -19.8584 14.4535 -0.507191 66.9396 15.955 18.4918 33.6363 5.65063 -14.098 -179.925 15.5624 92.3956 -37.4157 3.72662 -3.05888 69.2907 -4.17509 -2.20729 46.6375 1.55411 4.83515 -0.0709274 7.33107 -89.9037 12.2118 -0.0952902 0.202842 0.54083 -0.0862713 0.206838 -21.9943 -0.151855 0.164828 -1.98163 -0.15185 0.164823 80.4658 -51.8716 -114.483 28.6578 -5.73725 11.1586 -10.9136 -14.3936 -43.7103 -7.92088 -0.73373 4.92282 -102.228 -43.3577 57.9784 -30.6316 9.71904 5.34676 5.44869 9.518 -35.9361 10.5796 0.974394 4.99108 10.2105 0.895336 1.42928 -0.651178 0.552086 0.136063 
38.3249 95.6296 -258.347 -69.9646 -87.5763 -70.7782 -175.23 4.20145 84.256 -18.3165 15.6898 -0.526594 66.7054 16.2345 18.0056 35.7457 7.54128 -11.0359 179.995 20.975 92.0134 -42.8741 3.75143 -2.91481 68.6899 -3.87923 -2.07462 48.257 1.47712 2.54658 -0.376414 7.53581 -89.9064 11.8034 -0.704485 0.261575 0.132618 -0.692291 0.29232 -22.4041 -0.750531 0.0377428 -2.39144 -0.750532 0.037741 80.1389 -51.9013 -114.946 28.5202 -5.4693 11.7596 -9.22137 -13.5384 -42.3772 -7.2126 -0.594046 3.35693 -102.898 -43.5728 57.0565 -29.6398 10.6679 5.11378 6.06995 9.53661 -38.5983 9.49094 0.686416 3.11202 8.66739 1.41377 1.99785 0.0148496 0.970323 0.657483 
38.6024 95.7094 -255.486 -47.5737 -88.2724 -47.4606 -174.827 1.18238 85.2838 -15.446 16.3126 -0.395068 67.5849 17.5644 17.4953 35.3001 7.11941 -12.1361 -179.996 25.0788 92.2241 -36.4371 5.3793 -1.56483 67.1242 -3.07518 -1.66915 46.4397 1.3555 2.94109 -0.546758 7.63086 -90.0502 11.6131 -1.11109 0.0148158 -0.0574053 -1.10936 0.0637002 -22.5962 -1.06418 -0.319846 -2.58355 -1.06418 -0.319838 79.8361 -52.5612 -115.13 28.1568 -5.68267 13.4139 -9.47032 -12.386 -43.6433 -5.82748 -0.570771 4.92712 -102.738 -43.166 57.1124 -29.1463 11.349 3.95945 7.26756 9.46311 -42.2683 9.31168 0.82709 4.51638 7.64646 0.863489 1.06329 -0.0814208 0.664509 1.30744 
38.7306 95.3274 -251.945 -47.3988 -88.2921 -46.8847 -174.336 -1.89108 85.6353 -13.9019 16.8713 -0.422374 67.7695 19.2722 19.2042 37.2983 8.8516 -13.5417 -179.58 27.9777 91.9325 -26.9159 4.70508 -0.541103 65.1028 -2.08415 -1.14058 44.5773 1.20523 3.03702 -0.60061 7.79322 -90.1261 11.2871 -1.25393 -0.12634 -0.383234 -1.25827 -0.0710223 -22.9226 -1.15798 -0.497404 -2.91 -1.15798 -0.497402 79.6075 -53.4625 -115.115 27.6779 -5.41569 14.3133 -8.88359 -13.5648 -40.6892 -5.49314 -0.529037 4.33839 -102.887 -42.6448 56.6423 -27.407 12.2674 2.18471 7.79927 9.09381 -44.9758 10.8802 0.985521 4.89393 7.49163 0.837525 0.299412 0.724754 0.812424 1.52094 
38.518 94.4169 -246.931 -15.6775 -88.3728 -15.3957 -174.374 -4.1365 85.8113 -15.2258 18.3044 -0.0359692 67.3783 19.8653 20.6238 41.7871 12.7553 -13.5442 -179.477 29.3578 91.2921 -18.3917 7.82729 0.345331 64.6745 -1.80944 -0.985181 42.6274 1.20626 6.03067 -0.760448 7.87634 -90.1994 11.1203 -1.60618 -0.240884 -0.549695 -1.61522 -0.169951 -23.0915 -1.45951 -0.712571 -3.07889 -1.45951 -0.712574 79.0673 -53.4107 -115.903 27.6883 -4.16825 15.6011 -9.53064 -13.9523 -39.721 -4.04626 -0.433506 4.33073 -103.104 -42.5414 56.2613 -25.5036 12.9543 -0.249136 7.59352 9.34721 -44.8018 11.6894 1.10269 5.28225 7.25775 1.11156 1.20155 1.16487 0.880298 0.889633 
37.8537 93.4081 -240.223 -29.3021 -88.2637 -29.1375 -174.309 -6.22514 86.6474 -19.304 22.0122 0.348703 63.9232 15.4652 21.1811 53.1487 22.6352 -13.2105 -179.116 30.1497 91.8744 -18.8109 7.90872 0.254344 64.0764 -1.71085 -0.927178 42.9661 1.27692 6.45569 -0.754934 7.89851 -90.2192 11.0759 -1.60439 -0.280805 -0.59409 -1.61519 -0.209905 -23.1357 -1.44582 -0.750094 -3.12307 -1.44581 -0.750094 76.843 -55.8601 -118.049 24.5118 -4.92883 17.5599 -8.71787 -14.233 -39.4298 -3.36129 -0.407797 5.58126 -103.435 -42.3884 55.6836 -24.8341 12.8737 -1.30205 6.57445 10.2595 -41.1987 11.8296 1.08898 5.0757 6.75878 1.1535 0.290206 1.2122 1.14114 1.74824 
37.0192 92.7481 -231.733 13.0815 -88.4681 14.3481 -174.155 -7.23901 89.2043 -25.8275 25.5503 1.22119 59.8843 7.85977 15.6241 60.4541 30.958 -7.82301 179.871 30.8516 93.2786 -28.5335 7.29886 0.846188 62.8393 -1.44874 -0.788243 39.9762 0.892099 5.45956 -0.975832 7.81403 -90.4297 11.2417 -2.14199 -0.644114 -0.427626 -2.16827 -0.549189 -22.9728 -1.84937 -1.25825 -2.96011 -1.84937 -1.25827 76.7931 -56.0807 -118.029 23.769 -4.94105 16.406 -7.45929 -15.6385 -34.7447 -4.40465 -0.462928 4.30249 -103.839 -42.3911 55.0684 -26.8398 11.8667 0.110671 4.90151 10.9163 -35.371 12.495 1.19737 5.45651 7.47941 1.58166 0.342554 -0.383994 1.53345 2.08625 
35.7393 92.2931 -222.835 8.03992 -89.1164 9.83892 -173.879 -2.24613 93.0123 -38.4108 26.5414 1.19171 45.3782 -9.60248 0.391872 58.2359 33.6233 3.5378 179.092 29.682 95.324 -38.661 8.83685 0.980812 68.3417 -2.8092 -1.48865 36.0945 0.438028 9.81736 -0.991423 7.66854 -90.4734 11.5309 -2.19376 -0.718865 -0.138331 -2.22327 -0.621582 -22.6836 -1.87628 -1.34511 -2.67093 -1.87627 -1.34511 78.0654 -54.5947 -116.853 25.9051 -4.29678 15.088 -8.36982 -16.4414 -34.0678 -2.53871 -0.342054 4.10358 -103.3 -42.2016 55.8012 -29.7554 11.7387 3.50088 3.87702 11.1212 -32.3428 10.5379 1.24701 7.4639 6.85762 1.65755 0.385916 -0.930864 1.59713 2.34408 
34.8286 92.5962 -215.008 -109.344 -88.5199 -107.013 -174.002 8.50089 94.4601 -57.1716 18.2926 0.912404 43.7594 -10.5932 1.03624 42.2685 16.7078 10.5915 179.479 23.9646 97.2517 -40.7747 9.10779 0.346756 73.5739 -4.41139 -2.18345 34.9076 0.262715 12.6333 -0.587934 7.79253 -90.4414 11.2843 -1.37552 -0.742271 -0.386144 -1.40686 -0.681006 -22.9236 -1.08886 -1.12137 -2.91095 -1.08886 -1.12137 78.1577 -53.1613 -117.294 26.8353 -5.08756 13.43 -9.90618 -15.5788 -39.7956 -4.68495 -0.504164 4.93655 -103.774 -42.5078 55.2228 -30.2966 11.9541 6.32363 3.57278 10.3627 -33.078 12.562 1.32475 6.39654 8.30405 0.625693 1.3462 -0.673646 0.353887 1.11082 
33.153 94.5731 -206.782 -107.856 -87.4211 -108.109 -174.249 17.6221 91.6875 -56.4019 15.6984 0.215131 49.9357 -4.14949 8.85521 47.5756 20.3233 -1.65388 179.653 15.0005 95.8874 -34.9421 7.75787 -0.859318 75.3982 -4.90283 -2.34863 35.1215 0.305857 11.7746 -0.215108 7.79686 -90.0608 11.2796 -0.45633 -0.0759493 -0.391287 -0.45923 -0.0557939 -22.9267 -0.41241 -0.209591 -2.91404 -0.412405 -0.209587 79.0676 -51.5384 -116.641 27.2373 -6.45443 10.0665 -11.4632 -14.6696 -44.1926 -5.78686 -0.511692 2.78499 -102.804 -42.8548 56.868 -31.6515 10.619 7.39587 3.45791 8.96079 -32.8181 14.3822 1.23243 4.57464 7.10842 -0.00102361 2.40872 -0.0577725 -0.479077 0.125216 
32.2804 95.841 -199.158 -94.2689 -85.5187 -95.6533 -174.222 21.9517 89.7443 -37.7824 14.721 -0.673522 55.2535 -0.124299 7.44626 47.027 23.2891 11.9539 179.892 6.76149 94.8984 -27.7472 5.30944 -1.84107 75.2234 -4.97524 -2.37923 35.1908 0.312775 11.0403 0.2108 7.73416 -89.8257 11.4048 0.50082 0.296159 -0.266058 0.513369 0.273825 -22.8016 0.388653 0.432983 -2.789 0.388654 0.432979 79.4776 -50.3829 -116.508 25.8573 -8.83568 7.01432 -12.9163 -12.4785 -52.0477 -8.06913 -0.691863 4.10663 -102.153 -43.02 57.9392 -33.5745 8.73135 9.63468 5.06736 8.80908 -35.0654 12.2768 1.11217 4.99012 7.02389 -0.0616744 4.02977 -0.121829 -0.903387 -1.25121 
